<svg width="36" height="37" viewBox="0 0 36 37" fill="none" xmlns="http://www.w3.org/2000/svg">
<g clip-path="url(#clip0_1_296)">
<path d="M30.7955 15.2671C30.8388 10.1916 26.5158 5.53864 21.1591 4.89522C21.0526 4.88259 20.9365 4.86336 20.8136 4.84301C20.5485 4.79907 20.2742 4.75391 19.9975 4.75391C18.8996 4.75391 18.6061 5.52511 18.5289 5.98506C18.4537 6.43227 18.5254 6.80781 18.7415 7.10173C19.1051 7.59612 19.7448 7.68388 20.2587 7.7542C20.4093 7.775 20.5514 7.79434 20.6703 7.82106C25.4831 8.89648 27.1037 10.5872 27.8957 15.3591C27.915 15.4758 27.9238 15.6194 27.933 15.7718C27.9676 16.3422 28.0396 17.529 29.3155 17.529H29.3156C29.4218 17.529 29.5359 17.5198 29.6548 17.5017C30.8429 17.3211 30.8057 16.2363 30.7878 15.7151C30.7827 15.5683 30.7779 15.4295 30.7903 15.3371C30.7937 15.3139 30.7954 15.2905 30.7955 15.2671Z" fill="#3F4998"/>
<path d="M19.6856 3.03211C19.8282 3.04239 19.9631 3.05223 20.0755 3.06945C27.9786 4.28484 31.6131 8.02929 32.6204 15.9942C32.6375 16.1296 32.6401 16.2948 32.6429 16.4696C32.653 17.0919 32.6737 18.3864 34.0639 18.4133L34.1071 18.4137C34.5431 18.4137 34.8899 18.2822 35.138 18.0226C35.5708 17.57 35.5406 16.8975 35.5162 16.357C35.5103 16.2244 35.5046 16.0995 35.5061 15.9902C35.6066 7.84414 28.5553 0.457324 20.4165 0.182628C20.3827 0.18151 20.3505 0.183299 20.318 0.187883C20.302 0.190231 20.2724 0.193138 20.2216 0.193138C20.1404 0.193138 20.0406 0.186094 19.9347 0.178939C19.8067 0.170218 19.6616 0.160156 19.5145 0.160156C18.2183 0.160156 17.9719 1.0814 17.9404 1.63057C17.8677 2.89973 19.0955 2.98906 19.6856 3.03211Z" fill="#3F4998"/>
<path d="M32.239 26.2885C32.071 26.1602 31.8972 26.0274 31.7346 25.8963C30.8717 25.2019 29.9537 24.5619 29.0659 23.9428C28.8816 23.8145 28.6974 23.686 28.5138 23.5572C27.3765 22.7584 26.3541 22.3702 25.3882 22.3702C24.0871 22.3702 22.9528 23.0891 22.0166 24.5066C21.6018 25.1351 21.0986 25.4406 20.4784 25.4406C20.1117 25.4406 19.695 25.336 19.2401 25.1295C15.5693 23.4649 12.9482 20.9127 11.4492 17.5438C10.7247 15.9155 10.9595 14.8512 12.2347 13.9849C12.9589 13.4934 14.3068 12.5785 14.2113 10.8263C14.1032 8.83658 9.71296 2.84974 7.86321 2.16976C7.08004 1.88176 6.25718 1.87908 5.41309 2.16306C3.28663 2.87791 1.76065 4.13333 0.999732 5.79335C0.264415 7.39737 0.29762 9.28077 1.09577 11.24C3.40312 16.9045 6.64715 21.8432 10.7381 25.9187C14.7423 29.9082 19.6639 33.1762 25.366 35.6314C25.88 35.8526 26.4191 35.9732 26.8127 36.0612C26.9469 36.0914 27.0627 36.1171 27.1471 36.1402C27.1935 36.1529 27.2414 36.1597 27.2893 36.1601L27.3344 36.1604C27.3344 36.1604 27.3344 36.1604 27.3346 36.1604C30.0165 36.1604 33.2367 33.7097 34.2257 30.9158C35.0922 28.4693 33.5102 27.2601 32.239 26.2885Z" fill="#3F4998"/>
<path d="M20.8719 9.50269C20.4127 9.51431 19.4571 9.53802 19.1218 10.5112C18.965 10.9661 18.9838 11.3609 19.1777 11.6849C19.4624 12.1603 20.0077 12.306 20.5038 12.3859C22.3028 12.6746 23.2267 13.6694 23.4115 15.5164C23.4974 16.3776 24.0773 16.9789 24.8219 16.9789C24.8769 16.9789 24.9333 16.9757 24.9893 16.9689C25.8848 16.8623 26.3189 16.2044 26.2797 15.0135C26.294 13.7706 25.6435 12.3595 24.5373 11.2356C23.4272 10.1082 22.089 9.47328 20.8719 9.50269Z" fill="#3F4998"/>
</g>
<defs>
<clipPath id="clip0_1_296">
<rect width="36" height="36" fill="white" transform="translate(0 0.160156)"/>
</clipPath>
</defs>
</svg>
