<svg width="38" height="39" viewBox="0 0 38 39" fill="none" xmlns="http://www.w3.org/2000/svg">
<path d="M29.0763 27.6532L19 37.7294L8.92373 27.6532C3.35876 22.0881 3.35876 13.0656 8.92373 7.50063C14.4887 1.93566 23.5112 1.93566 29.0763 7.50063C34.6413 13.0656 34.6413 22.0881 29.0763 27.6532ZM19 23.9102C22.4977 23.9102 25.3333 21.0746 25.3333 17.5769C25.3333 14.0791 22.4977 11.2436 19 11.2436C15.5022 11.2436 12.6667 14.0791 12.6667 17.5769C12.6667 21.0746 15.5022 23.9102 19 23.9102ZM19 20.7436C17.251 20.7436 15.8333 19.3259 15.8333 17.5769C15.8333 15.828 17.251 14.4102 19 14.4102C20.749 14.4102 22.1667 15.828 22.1667 17.5769C22.1667 19.3259 20.749 20.7436 19 20.7436Z" fill="#3F4998"/>
</svg>
