<svg width="38" height="39" viewBox="0 0 38 39" fill="none" xmlns="http://www.w3.org/2000/svg">
<path d="M36.746 8.63772C36.5913 7.60325 36.071 6.65846 35.2796 5.97461C34.4881 5.29077 33.4778 4.91313 32.4318 4.91016H5.56822C4.52224 4.91313 3.51195 5.29077 2.72049 5.97461C1.92902 6.65846 1.40876 7.60325 1.25403 8.63772L19 20.1208L36.746 8.63772Z" fill="#3F4998"/>
<path d="M19.6448 22.5326C19.4527 22.6569 19.2288 22.723 19 22.723C18.7712 22.723 18.5473 22.6569 18.3552 22.5326L1.1875 11.4248V29.0295C1.18876 30.1909 1.6507 31.3044 2.47196 32.1257C3.29323 32.947 4.40674 33.4089 5.56819 33.4101H32.4318C33.5933 33.4089 34.7068 32.947 35.528 32.1257C36.3493 31.3044 36.8112 30.1909 36.8125 29.0295V11.4236L19.6448 22.5326Z" fill="#3F4998"/>
</svg>
